<?xml version="1.0" encoding="utf-8"?>
<!-- Generator: Adobe Illustrator 19.0.0, SVG Export Plug-In . SVG Version: 6.00 Build 0)  -->
<svg version="1.1"
	 id="svg2" xmlns:dc="http://purl.org/dc/elements/1.1/" xmlns:svg="http://www.w3.org/2000/svg" xmlns:rdf="http://www.w3.org/1999/02/22-rdf-syntax-ns#" xmlns:inkscape="http://www.inkscape.org/namespaces/inkscape" xmlns:sodipodi="http://sodipodi.sourceforge.net/DTD/sodipodi-0.dtd" xmlns:cc="http://creativecommons.org/ns#" sodipodi:docname="F_icon_reversed.svg" sodipodi:version="0.32" inkscape:output_extension="org.inkscape.output.svg.inkscape" inkscape:version="0.46"
	 xmlns="http://www.w3.org/2000/svg" xmlns:xlink="http://www.w3.org/1999/xlink" x="0px" y="0px" viewBox="-415 217 128 128"
	 style="enable-background:new -415 217 128 128;" xml:space="preserve">
<defs>
	
	
		<inkscape:perspective  inkscape:vp_x="0 : 64 : 1" sodipodi:type="inkscape:persp3d" inkscape:vp_z="128 : 64 : 1" id="perspective20" inkscape:vp_y="0 : 1000 : 0" inkscape:persp3d-origin="64 : 42.666667 : 1">
		</inkscape:perspective>
</defs>
<sodipodi:namedview  objecttolerance="10.0" bordercolor="#666666" inkscape:cx="64" borderopacity="1.0" gridtolerance="10.0" pagecolor="#ffffff" id="base" guidetolerance="10.0" inkscape:zoom="3.609375" showgrid="false" inkscape:cy="64" inkscape:window-x="25" inkscape:window-y="25" inkscape:window-width="644" inkscape:current-layer="svg2" inkscape:pageopacity="0.0" inkscape:window-height="669" inkscape:pageshadow="2">
	</sodipodi:namedview>
<g id="Layer_4">
	<g id="g8">
	</g>
</g>
<g>
	<path id="Behance" d="M-299.4,252.5h-32.1v-8h32.1L-299.4,252.5C-299.4,252.5-299.4,252.5-299.4,252.5z M-352.8,285.2
		c2.1,3.2,3.1,7.1,3.1,11.7c0,4.7-1.2,9-3.5,12.7c-1.5,2.5-3.4,4.6-5.6,6.3c-2.5,1.9-5.5,3.3-9,4c-3.5,0.7-7.2,1.1-11.2,1.1H-415
		v-79.6h38.5c9.7,0.2,16.6,3,20.6,8.5c2.4,3.4,3.6,7.4,3.6,12.2c0,4.9-1.2,8.8-3.7,11.7c-1.4,1.7-3.4,3.2-6.1,4.5
		C-358,279.6-354.9,282-352.8,285.2z M-396.6,272.6h16.9c3.5,0,6.3-0.7,8.4-2c2.2-1.3,3.2-3.6,3.2-7c0-3.7-1.4-6.2-4.3-7.3
		c-2.5-0.8-5.6-1.2-9.4-1.2h-14.8V272.6z M-366.5,295.7c0-4.1-1.7-7-5.1-8.5c-1.9-0.9-4.6-1.3-8-1.3h-17.1v21.2h16.8
		c3.5,0,6.1-0.5,8.1-1.4C-368.3,303.9-366.5,300.6-366.5,295.7z M-287.5,282.8c0.4,2.6,0.6,6.4,0.5,11.3h-41.5c0.2,5.7,2.2,9.7,6,12
		c2.3,1.4,5,2.1,8.2,2.1c3.4,0,6.2-0.9,8.3-2.6c1.2-0.9,2.2-2.3,3.1-3.9h15.2c-0.4,3.4-2.2,6.8-5.5,10.3c-5.1,5.5-12.3,8.3-21.5,8.3
		c-7.6,0-14.3-2.3-20.1-7c-5.8-4.7-8.7-12.3-8.7-22.9c0-9.9,2.6-17.5,7.8-22.7c5.3-5.3,12-7.9,20.4-7.9c5,0,9.4,0.9,13.4,2.7
		c4,1.8,7.3,4.6,9.8,8.4C-289.7,274.3-288.2,278.3-287.5,282.8z M-302.5,284.2c-0.3-4-1.6-7-4-9c-2.4-2.1-5.3-3.1-8.8-3.1
		c-3.8,0-6.8,1.1-8.9,3.3c-2.1,2.2-3.4,5.1-4,8.8L-302.5,284.2L-302.5,284.2z"/>
</g>
</svg>
