<?xml version="1.0" encoding="utf-8"?>
<!-- Generator: Adobe Illustrator 19.0.0, SVG Export Plug-In . SVG Version: 6.00 Build 0)  -->
<svg version="1.1" id="Layer_1" xmlns="http://www.w3.org/2000/svg" xmlns:xlink="http://www.w3.org/1999/xlink" x="0px" y="0px"
	 viewBox="-454 256 50 50" style="enable-background:new -454 256 50 50;" xml:space="preserve">
<style type="text/css">
	.st0{fill:#FFFFFF;}
</style>
<g>
	<g>
		<g>
			<rect x="-448.2" y="251.6" width="3" height="1.5"/>
		</g>
		<g>
			<path d="M-448.2,306V303h3v2.9H-448.2z M-448.2,300v-2.9h3v2.9H-448.2z M-448.2,294.3v-2.9h3v2.9
				C-445.2,294.3-448.2,294.3-448.2,294.3z M-448.2,288.4v-2.9h3v2.9H-448.2z M-448.2,282.5v-2.9h3v2.9H-448.2z M-448.2,276.5v-2.9
				h3v2.9H-448.2z M-448.2,270.6v-2.9h3v2.9H-448.2z M-448.2,264.9V262h3v2.9H-448.2z M-448.2,259v-3h3v2.9h-3V259z"/>
		</g>
		<g>
			<rect x="-448.2" y="309" width="3" height="1.5"/>
		</g>
	</g>
	<g>
		<g>
			<rect x="-412.8" y="251.6" width="3" height="1.5"/>
		</g>
		<g>
			<path d="M-412.8,306V303h3v2.9H-412.8z M-412.8,300v-2.9h3v2.9H-412.8z M-412.8,294.3v-2.9h3v2.9
				C-409.8,294.3-412.8,294.3-412.8,294.3z M-412.8,288.4v-2.9h3v2.9H-412.8z M-412.8,282.5v-2.9h3v2.9H-412.8z M-412.8,276.5v-2.9
				h3v2.9H-412.8z M-412.8,270.6v-2.9h3v2.9H-412.8z M-412.8,264.9V262h3v2.9H-412.8z M-412.8,259v-3h3v2.9h-3V259z"/>
		</g>
		<g>
			<rect x="-412.8" y="308.9" width="3" height="1.5"/>
		</g>
	</g>
	<g>
		<g>
			<rect x="-430.5" y="251.6" width="3" height="1.5"/>
		</g>
		<g>
			<path d="M-430.5,306V303h3v2.9H-430.5z M-430.5,300v-2.9h3v2.9H-430.5z M-430.5,294.3v-2.9h3v2.9
				C-427.5,294.3-430.5,294.3-430.5,294.3z M-430.5,288.4v-2.9h3v2.9H-430.5z M-430.5,282.5v-2.9h3v2.9H-430.5z M-430.5,276.5v-2.9
				h3v2.9H-430.5z M-430.5,270.6v-2.9h3v2.9H-430.5z M-430.5,264.9V262h3v2.9H-430.5z M-430.5,259v-3h3v2.9h-3V259z"/>
		</g>
		<g>
			<rect x="-430.5" y="308.9" width="3" height="1.5"/>
		</g>
	</g>
	<g>
		<g>
			<rect x="-458.5" y="297.1" width="1.5" height="3"/>
		</g>
		<g>
			<path d="M-404,300h-2.9v-3h2.9V300z M-409.8,300h-2.9v-3h2.9V300z M-415.8,300h-2.9v-3h2.9V300z M-421.7,300h-2.9v-3h2.9V300z
				 M-427.5,300h-2.9v-3h2.9V300z M-433.3,300h-2.9v-3h2.9V300z M-439.3,300h-2.9v-3h2.9V300z M-445.2,300h-2.9v-3h2.9V300z
				 M-451,300h-2.9v-3h2.9V300z"/>
		</g>
		<g>
			<rect x="-401" y="297.1" width="1.5" height="3"/>
		</g>
	</g>
	<g>
		<g>
			<rect x="-458.5" y="261.9" width="1.5" height="3"/>
		</g>
		<g>
			<path d="M-404,264.9h-2.9v-3h2.9V264.9z M-409.8,264.9h-2.9v-3h2.9V264.9z M-415.8,264.9h-2.9v-3h2.9V264.9z M-421.7,264.9h-2.9
				v-3h2.9V264.9z M-427.5,264.9h-2.9v-3h2.9V264.9z M-433.3,264.9h-2.9v-3h2.9V264.9z M-439.3,264.9h-2.9v-3h2.9V264.9z
				 M-445.2,264.9h-2.9v-3h2.9V264.9z M-451,264.9h-2.9v-3h2.9V264.9z"/>
		</g>
		<g>
			<rect x="-401" y="261.9" width="1.5" height="3"/>
		</g>
	</g>
	<g>
		<g>
			<rect x="-458.5" y="279.5" width="1.5" height="3"/>
		</g>
		<g>
			<path d="M-404,282.5h-2.9v-3h2.9V282.5z M-409.8,282.5h-2.9v-3h2.9V282.5z M-415.8,282.5h-2.9v-3h2.9V282.5z M-421.7,282.5h-2.9
				v-3h2.9V282.5z M-427.5,282.5h-2.9v-3h2.9V282.5z M-433.3,282.5h-2.9v-3h2.9V282.5z M-439.3,282.5h-2.9v-3h2.9V282.5z
				 M-445.2,282.5h-2.9v-3h2.9V282.5z M-451,282.5h-2.9v-3h2.9V282.5z"/>
		</g>
		<g>
			<rect x="-401" y="279.5" width="1.5" height="3"/>
		</g>
	</g>
	<rect x="-437.3" y="266.8" class="st0" width="15.7" height="28.2"/>
	<g>
		<path d="M-432.3,287l-1.6,4.2h-4.1l7.8-20.5h3l7.6,20.5h-4.2l-1.5-4.2H-432.3z M-429,276.5L-429,276.5l-2.3,7.3h4.7L-429,276.5z"
			/>
	</g>
</g>
</svg>
