<?xml version="1.0" encoding="utf-8"?>
<!-- Generator: Adobe Illustrator 19.0.0, SVG Export Plug-In . SVG Version: 6.00 Build 0)  -->
<svg version="1.1"
	 id="svg2" xmlns:sodipodi="http://sodipodi.sourceforge.net/DTD/sodipodi-0.dtd" xmlns:svg="http://www.w3.org/2000/svg" xmlns:dc="http://purl.org/dc/elements/1.1/" xmlns:cc="http://creativecommons.org/ns#" xmlns:rdf="http://www.w3.org/1999/02/22-rdf-syntax-ns#" xmlns:inkscape="http://www.inkscape.org/namespaces/inkscape" inkscape:version="0.46" inkscape:output_extension="org.inkscape.output.svg.inkscape" sodipodi:version="0.32" sodipodi:docname="F_icon_reversed.html"
	 xmlns="http://www.w3.org/2000/svg" xmlns:xlink="http://www.w3.org/1999/xlink" x="0px" y="0px" viewBox="-134 176.9 128 128"
	 style="enable-background:new -134 176.9 128 128;" xml:space="preserve">
<defs>
	
	
		<inkscape:perspective  inkscape:vp_x="0 : 64 : 1" sodipodi:type="inkscape:persp3d" inkscape:vp_z="128 : 64 : 1" id="perspective20" inkscape:vp_y="0 : 1000 : 0" inkscape:persp3d-origin="64 : 42.666667 : 1">
		</inkscape:perspective>
</defs>
<sodipodi:namedview  bordercolor="#666666" inkscape:cx="64" borderopacity="1.0" pagecolor="#ffffff" objecttolerance="10.0" gridtolerance="10.0" guidetolerance="10.0" showgrid="false" inkscape:zoom="3.609375" inkscape:cy="64" id="base" inkscape:pageshadow="2" inkscape:window-height="669" inkscape:pageopacity="0.0" inkscape:current-layer="svg2" inkscape:window-width="644" inkscape:window-y="25" inkscape:window-x="25">
	</sodipodi:namedview>
<g id="Layer_4">
	<g id="g8">
	</g>
</g>
<g>
	<path d="M-6.1,241c-0.2,9-0.3,18-0.6,27c-0.2,7.6-1.9,14.9-6.3,21.3c-6.1,8.9-14.9,13.5-25.4,14.6c-6,0.6-12.2,0.8-18.2,0.8
		c-13.5,0-27.1-0.1-40.6-0.4c-6.7-0.1-13.2-1.6-19-4.9c-9.5-5.5-14.9-13.9-16.4-24.5c-0.9-6.8-1.1-13.7-1.2-20.5
		c-0.1-13.5,0.2-27,0.4-40.5c0.1-4.9,0.9-9.7,2.7-14.3c4.8-12.2,13.9-19.2,26.7-21.2c6.7-1,13.6-1.2,20.3-1.2
		c13.6-0.1,27.2,0.1,40.8,0.4c6.7,0.1,13.2,1.6,19,4.9c9.5,5.5,15,13.9,16.4,24.5c0.9,7.1,0.9,14.3,1.2,21.4c0.2,4.2,0,8.4,0,12.5
		C-6.2,241-6.2,241-6.1,241z M-17.5,241c-0.1,0-0.2,0-0.3,0c0-2.3,0.1-4.7,0-7c-0.2-7.7-0.2-15.4-0.8-23.1c-1-11.4-7.4-18.6-18.3-21
		c-2.7-0.6-5.6-0.9-8.3-0.9c-13.8-0.2-27.7-0.3-41.5-0.3c-5.2,0-10.5,0.3-15.7,1.1c-9.9,1.6-16.3,7.5-18.5,17.4
		c-0.6,2.5-0.9,5.1-1,7.6c-0.2,11.5-0.4,22.9-0.4,34.4c0,7.3,0.2,14.6,0.8,21.8c0.6,7.6,3.8,14,10.6,18.1c4.4,2.6,9.4,3.7,14.4,3.7
		c17.7,0.1,35.3,0.1,53,0c5,0,9.9-1,14.2-3.6c6.9-4.1,10.2-10.5,10.8-18.2C-17.9,261.1-17.8,251-17.5,241z"/>
	<path d="M-102.9,240.9c0-18.2,14.8-32.7,33.1-32.7c18,0,32.6,14.8,32.6,32.8c0,18.1-14.7,32.8-32.8,32.8
		C-88.3,273.8-103,259.1-102.9,240.9z M-70.1,262.2c11.7,0,21.2-9.5,21.2-21.2s-9.5-21.3-21.3-21.3s-21.3,9.6-21.2,21.4
		C-91.3,252.8-81.7,262.3-70.1,262.2z"/>
	<path d="M-36.1,199.3c4.3,0,7.7,3.3,7.7,7.6c0,4.2-3.3,7.6-7.5,7.7c-4.3,0.1-7.8-3.3-7.8-7.6C-43.8,202.7-40.4,199.3-36.1,199.3z"
		/>
</g>
</svg>
