<?xml version="1.0" encoding="utf-8"?>
<!-- Generator: Adobe Illustrator 19.0.0, SVG Export Plug-In . SVG Version: 6.00 Build 0)  -->
<svg version="1.1" id="Layer_1" xmlns="http://www.w3.org/2000/svg" xmlns:xlink="http://www.w3.org/1999/xlink" x="0px" y="0px"
	 viewBox="-474 476 50 50" style="enable-background:new -474 476 50 50;" xml:space="preserve">
<style type="text/css">
	.st0{fill:#FFFFFF;}
</style>
<g>
	<path d="M-440.5,489.2c1.8,0,3.3,1.5,3.3,3.3v25.2c0,1.8-1.5,3.3-3.3,3.3h-25.2c-1.8,0-3.3-1.5-3.3-3.3v-25.2
		c0-1.8,1.5-3.3,3.3-3.3H-440.5 M-440.5,484.2h-25.2c-4.6,0-8.3,3.7-8.3,8.3v25.2c0,4.6,3.7,8.3,8.3,8.3h25.2c4.6,0,8.3-3.7,8.3-8.3
		v-25.2C-432.2,487.9-435.9,484.2-440.5,484.2L-440.5,484.2z"/>
</g>
<rect x="-450.3" y="476" class="st0" width="26.3" height="26.3"/>
<g>
	<g>
		<rect x="-459.6" y="490.1" transform="matrix(-0.7071 0.7071 -0.7071 -0.7071 -403.5754 1152.3164)" width="38.3" height="5"/>
	</g>
</g>
<g>
	<polygon points="-424,476 -424,495 -429,495 -429,481 -443,481 -443,476 	"/>
</g>
</svg>
