<?xml version="1.0" encoding="utf-8"?>
<!-- Generator: Adobe Illustrator 19.0.0, SVG Export Plug-In . SVG Version: 6.00 Build 0)  -->
<svg version="1.1" id="Layer_1" xmlns="http://www.w3.org/2000/svg" xmlns:xlink="http://www.w3.org/1999/xlink" x="0px" y="0px"
	 viewBox="-454 256 50 50" style="enable-background:new -454 256 50 50;" xml:space="preserve">
<g id="XMLID_1_">
	<path id="XMLID_21_" d="M-434.8,280.2c0.5,0.8,0.9,1.6,1.4,2.4c1.1,1.7,2.5,3,4.5,3.6c3.2,0.9,6.1,0.2,8.5-2.1
		c2.8-2.7,5.6-5.5,8.3-8.3c3-3.1,3-8.1-0.1-11.2c-1.2-1.2-2.8-1.9-4.4-2.2c-2.4-0.5-4.5,0.1-6.4,1.6c-1.3,1-2.4,2.2-3.6,3.3
		c-0.3,0.3-0.5,0.3-0.9,0.2c-2-0.7-4.1-1-6.2-0.5c-0.2,0-0.3,0-0.6,0.1c0.1-0.1,0.1-0.2,0.1-0.2c2.2-2.1,4.4-4.3,6.7-6.3
		c1.5-1.6,3.4-2.7,5.5-3.5c3.4-1.2,6.8-0.8,10,0.9c4.4,2.4,7.1,6,7.9,10.9c0.3,1.6-0.1,3.2-0.6,4.7c-0.8,2.4-2.1,4.4-3.8,6.2
		c-2.9,3-5.9,5.9-8.8,8.8c-2,2-4.3,3.3-7.1,3.8c-5.1,0.9-9.3-0.8-12.5-4.9c-0.7-0.9-1.3-2-2-3c-0.1-0.2-0.2-0.3,0-0.5
		C-437.5,282.8-436.2,281.5-434.8,280.2C-434.9,280.2-434.8,280.2-434.8,280.2z"/>
	<path id="XMLID_20_" d="M-423.9,282.3c-0.5-0.8-0.9-1.5-1.4-2.3c-1-1.6-2.3-2.9-4.1-3.5c-3.2-1.1-6.1-0.6-8.6,1.7
		c-3,2.8-5.9,5.8-8.7,8.8c-2.2,2.3-2.5,5.1-1.5,8.1c0.9,2.6,2.8,4.1,5.4,4.9c3.1,1,5.9,0.1,8.2-2c0.9-0.8,1.7-1.6,2.5-2.5
		c0.2-0.2,0.3-0.2,0.6-0.1c0.6,0.2,1.2,0.4,1.8,0.4c1.3,0.2,3.5,0.1,4.8-0.2c-0.1,0.1-0.2,0.3-0.3,0.3c-2.1,2.1-4.1,4.2-6.2,6.3
		c-2.4,2.4-5.4,3.4-8.8,3.4c-6,0-11.5-4.1-13.1-9.8c-1.4-4.9-0.2-9.4,3.3-13.1c2.8-2.9,5.7-5.7,8.5-8.6c1.7-1.8,3.7-3.1,6.1-3.7
		c5.3-1.3,9.8,0,13.3,4.1c0.9,1,1.6,2.3,2.3,3.4c0.1,0.1,0.1,0.4,0,0.4C-421.2,279.7-422.5,281-423.9,282.3z"/>
</g>
</svg>
