<?xml version="1.0" encoding="utf-8"?>
<!-- Generator: Adobe Illustrator 19.0.0, SVG Export Plug-In . SVG Version: 6.00 Build 0)  -->
<svg version="1.1" id="Layer_1" xmlns="http://www.w3.org/2000/svg" xmlns:xlink="http://www.w3.org/1999/xlink" x="0px" y="0px"
	 viewBox="82 37.2 561.3 407.7" style="enable-background:new 82 37.2 561.3 407.7;" xml:space="preserve">
<style type="text/css">
	.st0{enable-background:new    ;}
</style>
<g>
	<g>
		<path d="M333.5,248c-3.3,4.8-8,8.6-12.2,12.8c-12.7,12.7-27.2,23.8-45.9,30.7c-12.6,4.7-28.2,8.2-43.5,7.8
			c-15.7-0.4-29.7-3.4-42.3-8.6c-23.5-9.7-39.1-28.7-56.3-45.9c-17.4-17.4-35-34.3-51-51.3c33.4-33,68-67.7,102-101.7
			c11.4-11.4,22.4-23.7,35.2-32.5c13.2-9.1,29.2-16.6,48-20c19.7-3.6,41.7-2.1,59.3,4.2c33,11.7,51,39.8,74.5,60.8
			c-2.7-5.4-5.9-10.4-8.6-15.8c3.3-4.8,8-8.6,12.2-12.8C417.6,63,432.1,51.9,450.8,45c12.6-4.7,28-8.1,43.2-7.8
			c15.8,0.4,29.7,3.5,42.3,8.6c23.9,9.7,39,28.6,56.3,45.9s34.9,34.1,51.3,50.7c-33,33.7-67.5,67.8-101.4,101.7
			c-11.5,11.5-22.5,23.4-35.2,32.5c-13.1,9.4-29.3,16.8-47.4,20.3c-19.9,3.8-41.3,2.4-59.3-3.6c-16.6-5.5-29.6-15-41.1-26.5
			c-11.5-11.5-23-23.1-34-34.3c-0.2-0.1-0.3-0.3-0.6-0.3C327.6,237.6,330.7,242.7,333.5,248z M323.4,128.5
			c-9.5-9.5-16.9-19.7-36.1-19.1c-13.5,0.5-24.5,6.5-33.1,14.3c-8.1,7.4-15.9,15.8-23.3,23.3c-16.6,16.6-31.7,32.1-46.5,46.5
			c4.5,5.1,9.2,9.8,14,14.6c4.6,4.6,9.2,10.5,14.6,14c17.2,11.1,42.3,2.5,53.4-8.6c23.6-23.6,49.3-48.8,70.9-70.9
			C332.6,138.2,328.1,133.2,323.4,128.5z M527.3,128.5c-9.5-9.5-16.4-19.8-35.8-19.1c-13.9,0.5-25.1,6.6-33.1,14.6
			c-21.2,21.2-42.2,42.5-63.8,64.1c-1.8,1.8-6,5.3-6,6c0,0.4,2.7,2.4,3.6,3.3c3.7,3.7,7.7,8,10.4,10.7c4.9,4.9,9.3,10.4,14.3,13.7
			c12.1,8.1,31,5.7,42.6-0.3c11.7-6,19.8-16.2,28.6-25c18.1-18.1,36.2-36.1,53.4-54C536.8,137.8,532,133.2,527.3,128.5z"/>
	</g>
	<g class="st0">
		<path d="M94.2,370.5h18.4l14.6,38.5l15.5-38.5h18.6l10.9,72h-18.7l-5.2-41.4h-0.2l-17.3,41.4h-7.4l-16.5-41.4h-0.2l-6,41.4H82
			L94.2,370.5z"/>
		<path d="M204.3,370.9c4.8-1.8,9.8-2.7,14.9-2.7c5.2,0,10.1,0.9,14.9,2.7c4.8,1.8,9.1,4.4,12.7,7.6c3.7,3.3,6.6,7.2,8.8,11.7
			s3.3,9.5,3.3,14.9c0,5.9-1,11.2-3,16c-2,4.8-4.7,9-8.3,12.5c-3.5,3.5-7.7,6.3-12.6,8.2c-4.9,1.9-10.2,2.9-16,2.9s-11.1-1-16-2.9
			s-9.1-4.7-12.6-8.2s-6.3-7.7-8.3-12.5s-3-10.2-3-16c0-5.4,1.1-10.4,3.3-14.9s5.1-8.5,8.8-11.7
			C195.3,375.2,199.5,372.7,204.3,370.9z M227.1,387.9c-2.4-1-5.1-1.6-7.9-1.6c-2.8,0-5.4,0.5-7.9,1.6c-2.5,1-4.6,2.5-6.4,4.2
			c-1.8,1.8-3.3,3.8-4.4,6.1c-1.1,2.3-1.6,4.7-1.6,7.2c0,3.1,0.5,6,1.6,8.6s2.5,4.9,4.4,6.8c1.8,1.9,4,3.4,6.4,4.5s5.1,1.6,7.9,1.6
			c2.8,0,5.4-0.5,7.9-1.6c2.4-1.1,4.6-2.6,6.4-4.5c1.8-1.9,3.3-4.2,4.4-6.8c1.1-2.6,1.6-5.5,1.6-8.6c0-2.5-0.5-4.9-1.6-7.2
			c-1.1-2.3-2.5-4.3-4.4-6.1C231.7,390.3,229.6,388.9,227.1,387.9z"/>
		<path d="M278.6,370.5H297l14.6,38.5l15.5-38.5h18.6l10.9,72h-18.7l-5.2-41.4h-0.2l-17.3,41.4h-7.4l-16.6-41.4H291l-6,41.4h-18.6
			L278.6,370.5z"/>
		<path d="M386.2,386.4v12h21.1v15.8h-21.1v12.4h22.2v15.8h-40.9v-72h40.9v15.8h-22.2V386.4z"/>
		<path d="M422.9,370.5h18.7l34.3,44h0.2v-44h18.7v72h-18.7l-34.3-44.1h-0.2v44.1h-18.7V370.5z"/>
		<path d="M538.6,442.5h-18.7v-56.1h-15.5v-15.8H554v15.8h-15.5v56.1H538.6z"/>
		<path d="M585,370.9c4.8-1.8,9.8-2.7,14.9-2.7s10.1,0.9,14.9,2.7c4.8,1.8,9,4.4,12.7,7.6c3.7,3.3,6.6,7.2,8.8,11.7
			s3.3,9.5,3.3,14.9c0,5.9-1,11.2-3,16s-4.7,9-8.3,12.5s-7.7,6.3-12.6,8.2c-4.9,1.9-10.2,2.9-16,2.9s-11.1-1-16-2.9
			s-9.1-4.7-12.6-8.2s-6.3-7.7-8.3-12.5s-3-10.2-3-16c0-5.4,1.1-10.4,3.3-14.9s5.1-8.5,8.8-11.7C575.9,375.2,580.2,372.7,585,370.9z
			 M607.8,387.9c-2.5-1-5.1-1.6-7.9-1.6c-2.8,0-5.4,0.5-7.9,1.6c-2.5,1-4.6,2.5-6.4,4.2c-1.8,1.8-3.3,3.8-4.4,6.1
			c-1.1,2.3-1.6,4.7-1.6,7.2c0,3.1,0.5,6,1.6,8.6s2.5,4.9,4.4,6.8c1.8,1.9,4,3.4,6.4,4.5s5.1,1.6,7.9,1.6c2.8,0,5.4-0.5,7.9-1.6
			c2.4-1.1,4.6-2.6,6.4-4.5c1.8-1.9,3.3-4.2,4.4-6.8c1.1-2.6,1.6-5.5,1.6-8.6c0-2.5-0.5-4.9-1.6-7.2c-1.1-2.3-2.5-4.3-4.4-6.1
			C612.4,390.3,610.3,388.9,607.8,387.9z"/>
	</g>
</g>
<g>
	<g>
		<path d="M-245.1,233.4c0.6,0,1.2,0,1.9,0c15.8,0.4,29.7,3.5,42.3,8.6c23.9,9.7,39,28.6,56.3,45.9c17.3,17.3,34.9,34.1,51.3,50.7
			c-33,33.7-67.5,67.8-101.4,101.7c-11.5,11.5-22.5,23.4-35.2,32.5c-13.1,9.4-29.3,16.8-47.4,20.3c-7.4,1.4-15.1,2.1-22.7,2.1
			c-12.7,0-25.4-2-36.6-5.7c-16.6-5.5-29.6-15-41.1-26.5s-23-23.1-34-34.3c-0.2-0.1-0.3-0.3-0.6-0.3c2.7,5.4,5.8,10.5,8.6,15.8
			c-3.3,4.8-8,8.6-12.2,12.8c-12.7,12.7-27.2,23.8-45.9,30.7c-11.9,4.5-26.6,7.8-41.1,7.8c-0.8,0-1.6,0-2.4,0
			c-15.7-0.4-29.7-3.4-42.3-8.6c-23.5-9.7-39.1-28.7-56.3-45.9c-17.4-17.4-35-34.3-51-51.3c33.4-33,68-67.7,102-101.7
			c11.4-11.4,22.4-23.7,35.2-32.5c13.2-9.1,29.2-16.6,48-20c7-1.3,14.3-1.9,21.7-1.9c13.2,0,26.3,2.1,37.6,6.1
			c33,11.7,51,39.8,74.5,60.8c-2.7-5.4-5.9-10.4-8.6-15.8c3.3-4.8,8-8.6,12.2-12.8c12.7-12.7,27.2-23.8,45.9-30.7
			C-274.3,236.7-259.7,233.4-245.1,233.4 M-301,423.2c8.4,0,16.9-2.2,23.3-5.5c11.7-6,19.8-16.2,28.6-25
			c18.1-18.1,36.2-36.1,53.4-54c-4.7-4.7-9.5-9.3-14.2-14c-9.2-9.2-16-19.1-34-19.1c-0.6,0-1.2,0-1.8,0
			c-13.9,0.5-25.1,6.6-33.1,14.6c-21.2,21.2-42.2,42.5-63.8,64.1c-1.8,1.8-6,5.3-6,6c0,0.4,2.7,2.4,3.6,3.3c3.7,3.7,7.7,8,10.4,10.7
			c4.9,4.9,9.3,10.4,14.3,13.7C-314.8,421.7-307.9,423.2-301,423.2 M-505.4,423.5c13.4,0,27.2-6.3,34.6-13.8
			c23.6-23.6,49.3-48.8,70.9-70.9c-4.7-4.4-9.2-9.4-13.9-14.1c-9.2-9.2-16.5-19.1-34.5-19.1c-0.5,0-1.1,0-1.6,0
			c-13.5,0.5-24.5,6.5-33.1,14.3c-8.1,7.4-15.9,15.8-23.3,23.3c-16.6,16.6-31.7,32.1-46.5,46.5c4.5,5.1,9.2,9.8,14,14.6
			c4.6,4.6,9.2,10.5,14.6,14C-518.5,422-512,423.5-505.4,423.5 M-245.1,223.4c-14.3,0-30.2,3-44.8,8.4c-17.8,6.6-33.5,17.1-49.5,33
			c-1,1-2.1,2.1-3.3,3.2c-2,1.8-3.9,3.7-5.8,5.8c-16.2-17-33-34.5-58.5-43.5c-12.2-4.4-26.4-6.7-41-6.7c-8,0-15.9,0.7-23.5,2.1
			c-18.5,3.3-35.9,10.6-51.9,21.6c-11.1,7.6-20.7,17.4-30,26.9c-2.2,2.2-4.4,4.5-6.6,6.7c-5.7,5.7-11.3,11.3-17,17
			c-28.1,28.1-57.1,57.1-84.9,84.6l-6.9,6.9l6.7,7.1c11.4,12.1,23.9,24.5,35.9,36.4c5,5,10.2,10.1,15.3,15.2
			c2.8,2.8,5.6,5.7,8.3,8.5c14.6,15.1,29.7,30.7,51.2,39.6c14,5.8,29.5,8.9,45.9,9.4c0.9,0,1.8,0,2.7,0c14.1,0,30-3,44.6-8.5
			c17.8-6.6,33.5-17.1,49.5-33c1-1,2.1-2.1,3.3-3.2c2-1.8,3.9-3.7,5.8-5.8c4.9,5,9.9,10,14.9,15c14.3,14.3,28.6,23.5,45,28.9
			c12.2,4.1,26,6.2,39.8,6.2c8.3,0,16.6-0.8,24.5-2.3c18.5-3.6,36.3-11.2,51.4-22c11.3-8.1,21.2-18.1,30.8-27.8
			c1.9-1.9,3.8-3.8,5.7-5.7c9-9,18.1-18.1,27.2-27.1c24.6-24.5,50-49.9,74.3-74.6l6.9-7l-6.9-7c-9.1-9.2-18.8-18.7-28.1-27.8
			c-7.6-7.5-15.5-15.2-23.3-22.9c-3-3-5.9-6-8.8-9c-14.3-14.9-29.1-30.3-50.8-39.1c-14.5-5.9-29.5-8.9-45.8-9.3l0,0l0,0
			C-243.7,223.4-244.4,223.4-245.1,223.4L-245.1,223.4z M-334.3,390.2c10.5-10.5,20.9-21,31-31.2c10.3-10.4,21-21.2,31.6-31.7
			c5.1-5.1,13.8-11.2,26.4-11.7c0.5,0,1,0,1.5,0c11.4,0,16.1,4.9,23.2,12.4c1.2,1.2,2.4,2.5,3.7,3.8c2.4,2.4,4.8,4.8,7.2,7.1
			c0,0,0,0,0,0c-13.2,13.6-27,27.3-40.4,40.7l-6,6c-1.9,1.9-3.9,3.9-5.7,5.9c-6.5,6.9-12.7,13.3-20.4,17.3
			c-5.3,2.8-12.3,4.4-18.7,4.4c-5.6,0-10.4-1.2-13.8-3.5l0,0l0,0c-2.6-1.7-5.4-4.7-8.4-7.9c-1.4-1.5-2.8-3-4.3-4.5
			c-1.2-1.2-2.7-2.7-4.3-4.4C-332.6,392-333.5,391.1-334.3,390.2L-334.3,390.2z M-449.6,315.6c0.4,0,0.8,0,1.3,0
			c11.7,0,16.7,5.1,24.2,12.9c1,1.1,2.1,2.2,3.2,3.3c1.7,1.7,3.5,3.6,5.2,5.4c0.5,0.6,1.1,1.1,1.7,1.7
			c-12.6,12.8-26.4,26.5-39.8,39.8c-8,7.9-16.2,16.1-24.1,24c-5.4,5.4-16.6,10.8-27.6,10.8c-5.2,0-9.7-1.2-13.3-3.6
			c-2.8-1.8-5.8-5.1-8.7-8.2c-1.4-1.5-2.8-3-4.2-4.4c-2.4-2.4-4.8-4.8-7.1-7.2c7.5-7.4,15.2-15.1,23.1-23.2
			c5.3-5.4,10.8-10.9,16.5-16.6l0,0l0,0c2-2.1,4.1-4.2,6.2-6.3c5.4-5.6,11.1-11.4,16.8-16.6C-468.1,319.9-459.1,316-449.6,315.6
			L-449.6,315.6z"/>
	</g>
</g>
<polyline points="-345.3,284 -348.4,288.3 -337.7,298.1 "/>
<polyline points="-403.2,445.3 -400.1,441 -410.8,431.2 "/>
</svg>
