<?xml version="1.0" encoding="utf-8"?>
<!-- Generator: Adobe Illustrator 19.0.0, SVG Export Plug-In . SVG Version: 6.00 Build 0)  -->
<svg version="1.1" id="Layer_1" xmlns="http://www.w3.org/2000/svg" xmlns:xlink="http://www.w3.org/1999/xlink" x="0px" y="0px"
	 viewBox="82 40 561.3 407.7" style="enable-background:new 82 40 561.3 407.7;" xml:space="preserve">
<g>
	<path d="M333.3,250.7c-3.3,4.8-8,8.6-12.2,12.8c-12.7,12.7-27.2,23.8-45.9,30.7c-12.6,4.7-28.2,8.2-43.5,7.8
		c-15.7-0.4-29.7-3.4-42.3-8.6c-23.5-9.7-39.1-28.7-56.3-45.9c-17.4-17.4-35-34.3-51-51.3c33.4-33,68-67.7,102-101.7
		c11.4-11.4,22.4-23.7,35.2-32.5c13.2-9.1,29.2-16.6,48-20c19.7-3.6,41.7-2.1,59.3,4.2c33,11.7,51,39.8,74.5,60.8
		c-2.7-5.4-5.9-10.4-8.6-15.8c3.3-4.8,8-8.6,12.2-12.8c12.7-12.7,27.2-23.8,45.9-30.7c12.6-4.7,28-8.1,43.2-7.8
		c15.8,0.4,29.7,3.5,42.3,8.6c23.9,9.7,39,28.6,56.3,45.9c17.3,17.3,34.9,34.1,51.3,50.7c-33,33.7-67.5,67.8-101.4,101.7
		c-11.5,11.5-22.5,23.4-35.2,32.5c-13.1,9.4-29.3,16.8-47.4,20.3c-19.9,3.8-41.3,2.4-59.3-3.6c-16.6-5.5-29.6-15-41.1-26.5
		c-11.5-11.5-23-23.1-34-34.3c-0.2-0.1-0.3-0.3-0.6-0.3C327.4,240.3,330.5,245.4,333.3,250.7z M323.2,131.2
		c-9.5-9.5-16.9-19.7-36.1-19.1c-13.5,0.5-24.5,6.5-33.1,14.3c-8.1,7.4-15.9,15.8-23.3,23.3c-16.6,16.6-31.7,32.1-46.5,46.5
		c4.5,5.1,9.2,9.8,14,14.6c4.6,4.6,9.2,10.5,14.6,14c17.2,11.1,42.3,2.5,53.4-8.6c23.6-23.6,49.3-48.8,70.9-70.9
		C332.4,140.9,327.9,135.9,323.2,131.2z M527.1,131.2c-9.5-9.5-16.4-19.8-35.8-19.1c-13.9,0.5-25.1,6.6-33.1,14.6
		c-21.2,21.2-42.2,42.5-63.8,64.1c-1.8,1.8-6,5.3-6,6c0,0.4,2.7,2.4,3.6,3.3c3.7,3.7,7.7,8,10.4,10.7c4.9,4.9,9.3,10.4,14.3,13.7
		c12.1,8.1,31,5.7,42.6-0.3c11.7-6,19.8-16.2,28.6-25c18.1-18.1,36.2-36.1,53.4-54C536.6,140.5,531.8,135.9,527.1,131.2z"/>
</g>
</svg>
