<?xml version="1.0" encoding="utf-8"?>
<!-- Generator: Adobe Illustrator 19.0.0, SVG Export Plug-In . SVG Version: 6.00 Build 0)  -->
<svg version="1.1"
	 id="svg2" xmlns:rdf="http://www.w3.org/1999/02/22-rdf-syntax-ns#" xmlns:cc="http://creativecommons.org/ns#" xmlns:inkscape="http://www.inkscape.org/namespaces/inkscape" xmlns:sodipodi="http://sodipodi.sourceforge.net/DTD/sodipodi-0.dtd" xmlns:svg="http://www.w3.org/2000/svg" xmlns:dc="http://purl.org/dc/elements/1.1/" sodipodi:docname="F_icon_reversed.svg" sodipodi:version="0.32" inkscape:output_extension="org.inkscape.output.svg.inkscape" inkscape:version="0.46"
	 xmlns="http://www.w3.org/2000/svg" xmlns:xlink="http://www.w3.org/1999/xlink" x="0px" y="0px" viewBox="-35 37 128 128"
	 style="enable-background:new -35 37 128 128;" xml:space="preserve">
<defs>
	
	
		<inkscape:perspective  inkscape:vp_z="128 : 64 : 1" id="perspective20" sodipodi:type="inkscape:persp3d" inkscape:vp_x="0 : 64 : 1" inkscape:vp_y="0 : 1000 : 0" inkscape:persp3d-origin="64 : 42.666667 : 1">
		</inkscape:perspective>
</defs>
<sodipodi:namedview  bordercolor="#666666" inkscape:cx="64" gridtolerance="10.0" guidetolerance="10.0" objecttolerance="10.0" pagecolor="#ffffff" borderopacity="1.0" inkscape:cy="64" inkscape:zoom="3.609375" showgrid="false" id="base" inkscape:window-y="25" inkscape:window-width="644" inkscape:pageopacity="0.0" inkscape:current-layer="svg2" inkscape:window-x="25" inkscape:window-height="669" inkscape:pageshadow="2">
	</sodipodi:namedview>
<g id="Layer_4">
	<g id="g8">
	</g>
</g>
<title>Monogram</title>
<desc>Created with Sketch.</desc>
<g id="Page-1">
	<g id="Monogram">
		<path id="Shape" d="M-19.8,70.9c0.2-1.6-0.4-3.1-1.6-4.2l-11.9-14.4v-2.1H3.7l28.7,62.9l25.2-62.9H93v2.1l-10.2,9.8
			c-0.9,0.7-1.3,1.8-1.1,2.9V137c-0.2,1.1,0.3,2.2,1.1,2.9l10,9.8v2.1H42.6v-2.1l10.3-10c1-1,1-1.3,1-2.9V78.6l-28.7,73h-3.9
			l-33.4-73v48.9c-0.3,2.1,0.4,4.1,1.9,5.6l13.4,16.3v2.1H-35v-2.1l13.4-16.3c1.4-1.5,2.1-3.6,1.7-5.6V70.9z"/>
	</g>
</g>
</svg>
