<?xml version="1.0" encoding="utf-8"?>
<!-- Generator: Adobe Illustrator 19.0.0, SVG Export Plug-In . SVG Version: 6.00 Build 0)  -->
<svg version="1.1" id="Layer_1" xmlns="http://www.w3.org/2000/svg" xmlns:xlink="http://www.w3.org/1999/xlink" x="0px" y="0px"
	 viewBox="-454 256 50 50" style="enable-background:new -454 256 50 50;" xml:space="preserve">
<style type="text/css">
	.st0{fill:none;stroke:#000000;stroke-width:3;stroke-miterlimit:10;}
	.st1{fill:#FFFFFF;}
</style>
<g>
	<polyline class="st0" points="-411.3,298.7 -446.7,281.1 -411.3,263.3 	"/>
	<g>
		<g>
			<path class="st1" d="M-445.2,273.7c4,0,7.3,3.3,7.3,7.3s-3.3,7.3-7.3,7.3s-7.3-3.3-7.3-7.3S-449.2,273.7-445.2,273.7"/>
			<g>
				<path d="M-445.2,289.8c-4.9,0-8.8-3.9-8.8-8.8s3.9-8.8,8.8-8.8c4.9,0,8.8,3.9,8.8,8.8S-440.3,289.8-445.2,289.8z M-445.2,275.2
					c-3.2,0-5.8,2.6-5.8,5.8s2.6,5.8,5.8,5.8c3.2,0,5.8-2.6,5.8-5.8S-442,275.2-445.2,275.2z"/>
			</g>
		</g>
	</g>
	<g>
		<g>
			<path class="st1" d="M-412.8,257.5c4,0,7.3,3.3,7.3,7.3s-3.3,7.3-7.3,7.3s-7.3-3.3-7.3-7.3S-416.8,257.5-412.8,257.5"/>
			<g>
				<path d="M-412.8,273.6c-4.9,0-8.8-3.9-8.8-8.8c0-4.9,3.9-8.8,8.8-8.8c4.9,0,8.8,3.9,8.8,8.8C-404,269.7-407.9,273.6-412.8,273.6
					z M-412.8,259c-3.2,0-5.8,2.6-5.8,5.8c0,3.2,2.6,5.8,5.8,5.8c3.2,0,5.8-2.6,5.8-5.8C-407,261.6-409.6,259-412.8,259z"/>
			</g>
		</g>
	</g>
	<g>
		<g>
			<path class="st1" d="M-412.8,289.9c4,0,7.3,3.3,7.3,7.3s-3.3,7.3-7.3,7.3s-7.3-3.3-7.3-7.3S-416.8,289.9-412.8,289.9"/>
			<g>
				<path d="M-412.8,306c-4.9,0-8.8-3.9-8.8-8.8c0-4.9,3.9-8.8,8.8-8.8c4.9,0,8.8,3.9,8.8,8.8C-404,302.1-407.9,306-412.8,306z
					 M-412.8,291.4c-3.2,0-5.8,2.6-5.8,5.8s2.6,5.8,5.8,5.8c3.2,0,5.8-2.6,5.8-5.8S-409.6,291.4-412.8,291.4z"/>
			</g>
		</g>
	</g>
</g>
</svg>
