<?xml version="1.0" encoding="utf-8"?>
<!-- Generator: Adobe Illustrator 19.0.0, SVG Export Plug-In . SVG Version: 6.00 Build 0)  -->
<svg version="1.1" id="Layer_1" xmlns="http://www.w3.org/2000/svg" xmlns:xlink="http://www.w3.org/1999/xlink" x="0px" y="0px"
	 viewBox="-454 -50 50 50" style="enable-background:new -454 -50 50 50;" xml:space="preserve">
<style type="text/css">
	.st0{stroke:#000000;stroke-width:2;stroke-miterlimit:10;}
	.st1{clip-path:url(#SVGID_2_);}
	.st2{clip-path:url(#SVGID_4_);}
	.st3{fill:#FFFFFF;}
	.st4{fill:none;stroke:#000000;stroke-width:3;stroke-miterlimit:10;}
</style>
<g>
	<g id="XMLID_91_">
		<path id="XMLID_97_" class="st0" d="M-968.1,248.4c-5.2,0-10.3,0-15.5,0c-0.4,0-0.8,0-1.2-0.1c-0.1,0-0.2-0.1-0.3-0.2
			c-0.1,0-0.1-0.1-0.2-0.1c-0.4-0.1-0.7-0.4-1-0.6c-0.3-0.3-0.7-0.5-0.7-1c0-0.1-0.1-0.2-0.2-0.3c-0.3-0.3-0.3-0.6-0.4-1
			c0-0.4,0-0.8,0-1.1c0-6.5,0-18.9,0-27.4c0-0.4,0-0.9,0.2-1.3c0-0.1,0.1-0.1,0.1-0.2c0.1-0.2,0.2-0.3,0.3-0.5
			c0.1-0.1,0.1-0.2,0.2-0.3c0.3-0.3,0.6-0.6,0.9-0.9c0.1-0.1,0.2-0.1,0.3-0.2c0.2-0.1,0.3-0.2,0.5-0.3c0.2-0.1,0.4-0.2,0.7-0.2
			s0.5,0,0.8,0c10.3,0,21.7,0,32,0c0.4,0,0.8,0,1.2,0.2c0.1,0,0.1,0.1,0.2,0.1c0.1,0.1,0.3,0.2,0.4,0.3c0.2,0.1,0.3,0.2,0.4,0.3v0.1
			c0.3,0.2,0.5,0.5,0.7,0.7c0.1,0.1,0.2,0.2,0.2,0.4c0.1,0.1,0.1,0.3,0.2,0.4c0.3,0.3,0.3,0.6,0.3,1s0,0.8,0,1.1c0,9.5,0,22,0,27.5
			c0,0.4,0,0.8-0.1,1.2c-0.2,0.3-0.4,0.7-0.6,1s-0.5,0.5-0.8,0.8c-0.2,0.2-0.4,0.4-0.8,0.5c0,0-0.1,0-0.1,0.1
			c-0.3,0.4-0.8,0.4-1.2,0.4s-0.7,0-1.1,0C-957.2,248.4-963.1,248.4-968.1,248.4L-968.1,248.4z M-968,223.3L-968,223.3
			c-5.6,0-11.3,0-16.9,0c-0.1,0-0.3,0-0.4,0c-0.2,0-0.3,0.1-0.3,0.3c0,0.2,0,0.3,0,0.5c0,5.3,0,14.6,0,19.9c0,0.3,0,0.7,0.1,1
			c0,0.1,0.1,0.2,0.2,0.3c0.1,0.1,0.2,0.3,0.3,0.4s0.2,0.2,0.3,0.3c0.1,0.1,0.2,0.2,0.4,0.3c0.1,0.1,0.2,0.2,0.3,0.2
			c0.2,0,0.4,0.1,0.6,0.1c10.3,0,21.6,0,31.9,0c0.2,0,0.4,0,0.6-0.1c0.1,0,0.2-0.1,0.3-0.2s0.3-0.2,0.4-0.3c0.1-0.1,0.2-0.2,0.3-0.3
			c0.1-0.1,0.2-0.2,0.3-0.4c0.1-0.1,0.1-0.1,0.1-0.2c0-0.2,0.1-0.4,0.1-0.6c0-5.6,0-15.1,0-20.7c0-0.3-0.1-0.4-0.4-0.4
			C-955.6,223.3-962.3,223.3-968,223.3z M-968.1,221.4c5.7,0,12.5,0,18.2,0c0.3,0,0.4-0.1,0.4-0.4c0-1.2,0-3.4,0-4.6
			c0-0.2,0-0.5-0.1-0.7c0-0.1-0.1-0.2-0.1-0.2c-0.1-0.1-0.2-0.3-0.3-0.4s-0.2-0.2-0.3-0.3c-0.1-0.1-0.2-0.1-0.3-0.2
			s-0.2-0.2-0.4-0.2s-0.4-0.1-0.6-0.1c-10.3,0-21.6,0-31.9,0c-0.2,0-0.4,0-0.6,0.1c-0.1,0-0.2,0.1-0.3,0.2s-0.2,0.2-0.4,0.3
			c-0.1,0.1-0.2,0.1-0.3,0.3c-0.1,0.1-0.2,0.3-0.3,0.4s-0.1,0.2-0.2,0.2c0,0.2-0.1,0.4-0.1,0.7c0,1.2,0,3.4,0,4.7
			c0,0.3,0.1,0.4,0.4,0.4C-979.5,221.4-973.8,221.4-968.1,221.4z"/>
		<path id="XMLID_96_" class="st0" d="M-970.7,234.9c0.1,0.3-0.1,0.6-0.3,0.8c-0.3,0.3-0.5,0.6-0.8,0.9s-0.5,0.5-0.8,0.8
			s-0.5,0.5-0.8,0.8s-0.6,0.6-0.9,0.9h-0.1c-0.2,0.3-0.5,0.5-0.8,0.7s-0.4,0.2-0.7,0c-0.2-0.2-0.4-0.3-0.5-0.5
			c-0.2-0.2-0.1-0.8,0.2-1c0.1-0.1,0.2-0.2,0.3-0.4l0,0c0.3-0.3,0.6-0.6,0.9-0.9c0.1-0.1,0.1-0.1,0.2-0.2c0,0,0-0.1,0.1-0.1
			c0.3-0.3,0.6-0.6,0.9-0.9c0.1-0.1,0.1-0.1,0.2-0.2c0.1-0.1,0.3-0.3,0.4-0.4c0.1-0.1,0.2-0.2,0.2-0.4c0-0.1,0-0.2,0-0.3
			c0-0.2-0.1-0.2-0.2-0.3c-0.1-0.1-0.2-0.2-0.4-0.3c-0.1-0.1-0.2-0.2-0.3-0.2c-0.1-0.1-0.2-0.2-0.3-0.3c-0.1-0.1-0.2-0.2-0.2-0.3
			c-0.1-0.1-0.2-0.2-0.3-0.3c-0.1-0.1-0.2-0.2-0.2-0.2c-0.1-0.1-0.2-0.2-0.3-0.3c-0.1-0.1-0.2-0.2-0.3-0.2c-0.1-0.1-0.2-0.2-0.3-0.3
			c-0.1-0.1-0.1-0.2-0.2-0.3c-0.3-0.2-0.3-0.6-0.3-0.9c0-0.2,0.2-0.4,0.4-0.5c0.1,0,0.2-0.2,0.4-0.2c0.1,0,0.1,0,0.2,0
			c0.2,0.1,0.3,0.2,0.5,0.2s0.3,0.1,0.4,0.3c0.1,0.1,0.2,0.2,0.3,0.3c0.1,0.1,0.2,0.2,0.3,0.3c0.1,0.1,0.2,0.2,0.2,0.2
			c0.1,0.1,0.2,0.2,0.3,0.3c0.1,0.1,0.2,0.2,0.2,0.2c0.1,0.1,0.2,0.2,0.3,0.3c0.1,0.1,0.2,0.2,0.2,0.2c0.1,0.1,0.2,0.2,0.3,0.3
			c0.1,0.1,0.2,0.2,0.2,0.2c0.1,0.1,0.2,0.2,0.3,0.3c0.1,0.1,0.2,0.2,0.3,0.3c0.1,0.1,0.2,0.2,0.3,0.3c0.1,0.1,0.1,0.2,0.2,0.2
			C-970.7,234.3-970.6,234.6-970.7,234.9z"/>
		<path id="XMLID_95_" class="st0" d="M-962.7,236.7c-1,0-2.1,0-3.1,0c-0.4,0-0.7-0.2-0.9-0.6s-0.1-0.6,0.1-0.9
			c0.2-0.3,0.5-0.4,0.9-0.4c2,0,3.9,0,5.9,0c0.2,0,0.4,0,0.7,0c0.2,0,0.4,0.2,0.4,0.4c0.1,0.1,0.1,0.3,0.2,0.4v0.1
			c-0.1,0.3-0.1,0.7-0.5,0.9c-0.1,0-0.1,0-0.2,0c-0.5,0-1,0-1.5,0C-961.4,236.7-962,236.7-962.7,236.7L-962.7,236.7z"/>
		<path id="XMLID_94_" d="M-977.1,219.3c-0.3-0.2-0.7-0.1-0.9-0.5c-0.1-0.1-0.2-0.2-0.2-0.3c-0.1-0.1-0.1-0.3-0.1-0.4
			c0-0.2,0-0.4,0-0.6c0-0.1,0.1-0.3,0.1-0.4c0.1-0.1,0.2-0.3,0.3-0.4s0.1-0.1,0.2-0.1c0.3-0.1,0.6-0.2,0.9-0.1
			c0.2,0,0.4,0.1,0.6,0.2c0.1,0,0.2,0.2,0.3,0.3c0.1,0.1,0.1,0.2,0.2,0.3c0.3,0.4,0.3,0.8,0.1,1.2l-0.1,0.1
			c-0.1,0.1-0.2,0.1-0.2,0.2c-0.1,0.3-0.3,0.4-0.6,0.5C-976.7,219.2-976.9,219.2-977.1,219.3z"/>
		<path id="XMLID_93_" d="M-979.6,217.9c-0.1,0.2,0,0.6-0.2,0.8c-0.2,0.2-0.4,0.5-0.7,0.5h-0.1c-0.3,0.2-0.5,0.1-0.8,0
			c-0.1,0-0.2-0.1-0.3-0.1c-0.2-0.1-0.3-0.2-0.4-0.4c-0.1-0.2-0.2-0.4-0.2-0.5c-0.1-0.2-0.1-0.4,0-0.6s0.2-0.4,0.3-0.6
			c0.1-0.1,0.2-0.2,0.3-0.3c0.2-0.1,0.5-0.2,0.7-0.1c0.4,0,0.7,0.1,1,0.4C-979.6,217.2-979.6,217.5-979.6,217.9z"/>
		<path id="XMLID_92_" d="M-971.6,217.8c-0.1,0.3,0,0.7-0.2,0.9c-0.2,0.2-0.4,0.4-0.7,0.5h-0.1c-0.3,0.2-0.5,0-0.7,0
			c-0.1,0-0.2-0.1-0.2-0.1c-0.3-0.1-0.4-0.2-0.5-0.5c0-0.2-0.1-0.3-0.2-0.5c-0.1-0.2-0.1-0.4,0-0.6s0.2-0.4,0.3-0.7
			c0.1-0.2,0.2-0.2,0.4-0.3c0.2-0.1,0.5-0.1,0.7-0.1c0.1,0,0.3,0.1,0.4,0.1c0.4,0,0.6,0.3,0.8,0.6
			C-971.7,217.3-971.7,217.6-971.6,217.8z"/>
	</g>
	<g id="XMLID_116_">
		<g>
			<defs>
				<polygon id="SVGID_1_" points="-936.4,279.3 -980.9,279.3 -980.9,246.6 -936.4,252.6 				"/>
			</defs>
			<clipPath id="SVGID_2_">
				<use xlink:href="#SVGID_1_"  style="overflow:visible;"/>
			</clipPath>
			<g id="XMLID_81_" class="st1">
				<path id="XMLID_87_" class="st0" d="M-959,259.9c-5.2,0-10.3,0-15.5,0c-0.4,0-0.8,0-1.2-0.1c-0.1,0-0.2-0.1-0.3-0.2
					c-0.1,0-0.1-0.1-0.2-0.1c-0.4-0.1-0.7-0.4-1-0.6c-0.3-0.3-0.7-0.5-0.7-1c0-0.1-0.1-0.2-0.2-0.3c-0.3-0.3-0.3-0.6-0.4-1
					c0-0.4,0-0.8,0-1.1c0-13.5,0-24.8,0-26.3c0-0.4,0-0.9,0.2-1.3c0-0.1,0.1-0.1,0.1-0.2c0.1-0.2,0.2-0.3,0.3-0.5
					c0.1-0.1,0.1-0.2,0.2-0.3c0.3-0.3,0.6-0.6,0.9-0.9c0.1-0.1,0.2-0.1,0.3-0.2c0.2-0.1,0.3-0.2,0.5-0.3c0.2-0.1,0.4-0.2,0.7-0.2
					s0.5,0,0.8,0c10.3,0,20.7,0,31,0c0.4,0,0.8,0,1.2,0.2c0.1,0,0.1,0.1,0.2,0.1c0.1,0.1,0.3,0.2,0.4,0.3c0.2,0.1,0.3,0.2,0.4,0.3
					v0.1c0.3,0.2,0.5,0.5,0.7,0.7c0.1,0.1,0.2,0.2,0.2,0.4c0.1,0.1,0.1,0.3,0.2,0.4c0.3,0.3,0.3,0.6,0.3,1s0,0.8,0,1.1
					c0,7.5,0,18.9,0,26.3c0,0.4,0,0.8-0.1,1.2c-0.2,0.3-0.4,0.7-0.6,1s-0.5,0.5-0.8,0.8c-0.2,0.2-0.4,0.4-0.8,0.5c0,0-0.1,0-0.1,0.1
					c-0.3,0.4-0.8,0.4-1.2,0.4s-0.7,0-1.1,0C-949.1,259.9-954.1,259.9-959,259.9L-959,259.9z M-959,235L-959,235
					c-5.6,0-11.3,0-16.9,0c-0.1,0-0.3,0-0.4,0c-0.2,0-0.3,0.1-0.3,0.3c0,0.2,0,0.3,0,0.5c0-0.7,0,8.5,0,19.7c0,0.3,0,0.7,0.1,1
					c0,0.1,0.1,0.2,0.2,0.3c0.1,0.1,0.2,0.3,0.3,0.4s0.2,0.2,0.3,0.3c0.1,0.1,0.2,0.2,0.4,0.3c0.1,0.1,0.2,0.2,0.3,0.2
					c0.2,0,0.4,0.1,0.6,0.1c10.3,0,20.6,0,30.9,0c0.2,0,0.4,0,0.6-0.1c0.1,0,0.2-0.1,0.3-0.2s0.3-0.2,0.4-0.3
					c0.1-0.1,0.2-0.2,0.3-0.3c0.1-0.1,0.2-0.2,0.3-0.4c0.1-0.1,0.1-0.1,0.1-0.2c0-0.2,0.1-0.4,0.1-0.6c0-5.6,0-15,0-20.6
					c0-0.3-0.1-0.4-0.4-0.4C-947.6,235-953.3,235-959,235z M-959,233.1c5.7,0,11.5,0,17.2,0c0.3,0,0.4-0.1,0.4-0.4
					c0-1.2,0-2.4,0-3.6c0-0.2,0-0.5-0.1-0.7c0-0.1-0.1-0.2-0.1-0.2c-0.1-0.1-0.2-0.3-0.3-0.4s-0.2-0.2-0.3-0.3
					c-0.1-0.1-0.2-0.1-0.3-0.2s-0.2-0.2-0.4-0.2s-0.4-0.1-0.6-0.1c-10.3,0-20.6,0-30.9,0c-0.2,0-0.4,0-0.6,0.1
					c-0.1,0-0.2,0.1-0.3,0.2s-0.2,0.2-0.4,0.3c-0.1,0.1-0.2,0.1-0.3,0.3c-0.1,0.1-0.2,0.3-0.3,0.4s-0.1,0.2-0.2,0.2
					c0,0.2-0.1,0.4-0.1,0.7c0,1.2,0,2.4,0,3.7c0,0.3,0.1,0.4,0.4,0.4C-970.5,233.1-964.8,233.1-959,233.1z"/>
				<path id="XMLID_86_" class="st0" d="M-964.6,244.6c0.1,0.3-0.1,0.6-0.3,0.8c-0.3,0.3-0.5,0.6-0.8,0.9c-0.3,0.3-0.5,0.5-0.8,0.8
					c-0.3,0.3-0.5,0.5-0.8,0.8s-0.6-1.5-0.9-1.2h-0.1c-0.2,0.3-0.5,0.5-0.8,0.7s-0.4,0.2-0.7,0c-0.2-0.2-0.4-0.3-0.5-0.5
					c-0.2-0.2-0.1,1.3,0.2,1.2c0.1-0.1,0.2-0.2,0.3-0.4l0,0c0.3-0.3,0.6-0.6,0.9-0.9c0.1-0.1,0.1-0.1,0.2-0.2c0,0,0-0.1,0.1-0.1
					c0.3-0.3,0.6-0.6,0.9-0.9c0.1-0.1,0.1-0.1,0.2-0.2c0.1-0.1,0.3-0.3,0.4-0.4c0.1-0.1,0.2-0.2,0.2-0.4c0-0.1,0-0.2,0-0.3
					c0-0.2-0.1-0.2-0.2-0.3c-0.1-0.1-0.2-0.2-0.4-0.3c-0.1-0.1-0.2-0.2-0.3-0.2c-0.1-0.1-0.2-0.2-0.3-0.3c-0.1-0.1-0.2-0.2-0.2-0.3
					c-0.1-0.1-0.2-0.2-0.3-0.3c-0.1-0.1-0.2-0.2-0.2-0.2c-0.1-0.1-0.2-0.2-0.3-0.3c-0.1-0.1-0.2-0.2-0.3-0.2
					c-0.1-0.1-0.2-0.2-0.3-0.3c-0.1-0.1-0.1-0.2-0.2-0.3c-0.3-0.2-0.3-0.6-0.3-0.9c0-0.2,0.2-0.4,0.4-0.5c0.1,0,0.2-0.2,0.4-0.2
					c0.1,0,0.1,0,0.2,0c0.2,0.1,0.3,0.2,0.5,0.2s0.3,0.1,0.4,0.3c0.1,0.1,0.2,0.2,0.3,0.3c0.1,0.1,0.2,0.2,0.3,0.3
					c0.1,0.1,0.2,0.2,0.2,0.2c0.1,0.1,0.2,0.2,0.3,0.3c0.1,0.1,0.2,0.2,0.2,0.2c0.1,0.1,0.2,0.2,0.3,0.3c0.1,0.1,0.2,0.2,0.2,0.2
					c0.1,0.1,0.2,0.2,0.3,0.3c0.1,0.1,0.2,0.2,0.2,0.2c0.1,0.1,0.2,0.2,0.3,0.3c0.1,0.1,0.2,0.2,0.3,0.3c0.1,0.1,0.2,0.2,0.3,0.3
					c0.1,0.1,0.1,0.2,0.2,0.2C-964.7,244-964.6,244.3-964.6,244.6z"/>
				<path id="XMLID_85_" class="st0" d="M-956.6,246.4c-1,0-2.1,0-3.1,0c-0.4,0-0.7-0.2-0.9-0.6c-0.2-0.4-0.1-0.6,0.1-0.9
					s0.5-0.4,0.9-0.4c2,0,3.9,0,5.9,0c0.2,0,0.4,0,0.7,0c0.2,0,0.4,0.2,0.4,0.4c0.1,0.1,0.1,0.3,0.2,0.4v0.1
					c-0.1,0.3-0.1,0.7-0.5,0.9c-0.1,0-0.1,0-0.2,0c-0.5,0-1,0-1.5,0C-955.3,246.4-956,246.4-956.6,246.4L-956.6,246.4z"/>
				<path id="XMLID_84_" d="M-967.2,231.5c-0.3-0.2-0.7-0.1-0.9-0.5c-0.1-0.1-0.2-0.2-0.2-0.3c-0.1-0.1-0.1-0.3-0.1-0.4
					c0-0.2,0-0.4,0-0.6c0-0.1,0.1-0.3,0.1-0.4c0.1-0.1,0.2-0.3,0.3-0.4s0.1-0.1,0.2-0.1c0.3-0.1,0.6-0.2,0.9-0.1
					c0.2,0,0.4,0.1,0.6,0.2c0.1,0,0.2,0.2,0.3,0.3c0.1,0.1,0.1,0.2,0.2,0.3c0.3,0.4,0.3,0.8,0.1,1.2l-0.1,0.1
					c-0.1,0.1-0.2,0.1-0.2,0.2c-0.1,0.3-0.3,0.4-0.6,0.5C-966.8,231.4-967,231.5-967.2,231.5z"/>
				<path id="XMLID_83_" d="M-969.7,230.1c-0.1,0.2,0,0.6-0.2,0.8c-0.2,0.2-0.4,0.5-0.7,0.5h-0.1c-0.3,0.2-0.5,0.1-0.8,0
					c-0.1,0-0.2-0.1-0.3-0.1c-0.2-0.1-0.3-0.2-0.4-0.4c-0.1-0.2-0.2-0.4-0.2-0.5c-0.1-0.2-0.1-0.4,0-0.6s0.2-0.4,0.3-0.6
					c0.1-0.1,0.2-0.2,0.3-0.3c0.2-0.1,0.5-0.2,0.7-0.1c0.4,0,0.7,0.1,1,0.4C-969.7,229.4-969.7,229.7-969.7,230.1z"/>
				<path id="XMLID_82_" d="M-961.7,230c-0.1,0.3,0,0.7-0.2,0.9c-0.2,0.2-0.4,0.4-0.7,0.5h-0.1c-0.3,0.2-0.5,0-0.8,0
					c-0.1,0-0.2-0.1-0.2-0.1c-0.3-0.1-0.4-0.2-0.5-0.5c0-0.2-0.1-0.3-0.2-0.5c-0.1-0.2-0.1-0.4,0-0.6c0.1-0.2,0.2-0.4,0.3-0.7
					c0.1-0.2,0.2-0.2,0.4-0.3c0.2-0.1,0.5-0.1,0.7-0.1c0.1,0,0.3,0.1,0.4,0.1c0.4,0,0.6,0.3,0.8,0.6
					C-961.8,229.5-961.8,229.8-961.7,230z"/>
			</g>
		</g>
	</g>
	<g id="XMLID_104_">
		<g>
			<defs>
				<polygon id="SVGID_3_" points="-948.5,263.4 -937.6,261.4 -937.6,223.4 -948.5,225.4 				"/>
			</defs>
			<clipPath id="SVGID_4_">
				<use xlink:href="#SVGID_3_"  style="overflow:visible;"/>
			</clipPath>
			<g id="XMLID_67_" class="st2">
				<path id="XMLID_74_" class="st0" d="M-959,259.9c-5.2,0-10.3,0-15.5,0c-0.4,0-0.8,0-1.2-0.1c-0.1,0-0.2-0.1-0.3-0.2
					c-0.1,0-0.1-0.1-0.2-0.1c-0.4-0.1-0.7-0.4-1-0.6c-0.3-0.3-0.7-0.5-0.7-1c0-0.1-0.1-0.2-0.2-0.3c-0.3-0.3-0.3-0.6-0.4-1
					c0-0.4,0-0.8,0-1.1c0-6.5,0-16.8,0-25.3c0-0.4,0-0.9,0.2-1.3c0-0.1,0.1-0.1,0.1-0.2c0.1-0.2,0.2-0.3,0.3-0.5
					c0.1-0.1,0.1-0.2,0.2-0.3c0.3-0.3,0.6-1.6,0.9-1.9c0.1-0.1,0.2-0.1,0.3-0.2c0.2-0.1,0.3-0.2,0.5-0.3c0.2-0.1,0.4-0.2,0.7-0.2
					s0.5,0,0.8,0c10.3,0,20.7,1,31,1c0.4,0,0.8,0,1.2,0.2c0.1,0,0.1,0.1,0.2,0.1c0.1,0.1,0.3,0.2,0.4,0.3c0.2,0.1,0.3,0.2,0.4,0.3
					v0.1c0.3,0.2,0.5,0.5,0.7,0.7c0.1,0.1,0.2,0.2,0.2,0.4c0.1,0.1,0.1,0.3,0.2,0.4c0.3,0.3,0.3,0.6,0.3,1s0,0.8,0,1.1
					c0,7.5,0,17.9,0,25.3c0,0.4,0,0.8-0.1,1.2c-0.2,0.3-0.4,0.7-0.6,1s-0.5,0.5-0.8,0.8c-0.2,0.2-0.4,0.4-0.8,0.5c0,0-0.1,0-0.1,0.1
					c-0.3,0.4-0.8,0.4-1.2,0.4s-0.7,0-1.1,0C-949.1,259.9-954.1,259.9-959,259.9L-959,259.9z M-959,236L-959,236
					c-5.6,0-11.3,0-16.9,0c-0.1,0-0.3,0-0.4,0c-0.2,0-0.3,0.1-0.3,0.3c0,0.2,0,0.3,0,0.5c0,6.3,0,14.5,0,18.7c0,0.3,0,0.7,0.1,1
					c0,0.1,0.1,0.2,0.2,0.3c0.1,0.1,0.2,0.3,0.3,0.4s0.2,0.2,0.3,0.3c0.1,0.1,0.2,0.2,0.4,0.3c0.1,0.1,0.2,0.2,0.3,0.2
					c0.2,0,0.4,0.1,0.6,0.1c10.3,0,20.6,0,30.9,0c0.2,0,0.4,0,0.6-0.1c0.1,0,0.2-0.1,0.3-0.2s0.3-0.2,0.4-0.3
					c0.1-0.1,0.2-0.2,0.3-0.3c0.1-0.1,0.2-0.2,0.3-0.4c0.1-0.1,0.1-0.1,0.1-0.2c0-0.2,0.1-0.4,0.1-0.6c0-5.6,0-14,0-19.6
					c0-0.3-0.1-0.4-0.4-0.4C-947.6,236-953.3,236-959,236z M-959,234.1c5.7,0,11.5,0,17.2,0c0.3,0,0.4-0.1,0.4-0.4
					c0-1.2,0-2.4,0-3.6c0-0.2,0-0.5-0.1-0.7c0-0.1-0.1-0.2-0.1-0.2c-0.1-0.1-0.2-0.3-0.3-0.4s-0.2-0.2-0.3-0.3
					c-0.1-0.1-0.2-0.1-0.3-0.2s-0.2-0.2-0.4-0.2s-0.4-0.1-0.6-0.1c-10.3,0-20.6,0-30.9,0c-0.2,0-0.4,0-0.6,0.1
					c-0.1,0-0.2,0.1-0.3,0.2s-0.2,0.2-0.4,0.3c-0.1,0.1-0.2,0.1-0.3,0.3c-0.1,0.1-0.2,0.3-0.3,0.4s-0.1,0.2-0.2,0.2
					c0,0.2-0.1,0.4-0.1,0.7c0,1.2,0,2.4,0,3.7c0,0.3,0.1,0.4,0.4,0.4C-970.5,234.1-964.8,234.1-959,234.1z"/>
				<path id="XMLID_72_" class="st0" d="M-964.6,246.6c0.1,0.3-0.1-0.4-0.3-0.2c-0.3,0.3-0.5-0.4-0.8-0.1c-0.3,0.3-0.5,0.5-0.8,0.8
					c-0.3,0.3-0.5,0.5-0.8,0.8s-0.6,4.5-0.9,4.8h-0.1c-0.2,0.3-0.5,0.5-0.8,0.7s-0.4,0.2-0.7,0c-0.2-0.2-0.4-0.3-0.5-0.5
					c-0.2-0.2-0.1-4.7,0.2-4.8c0.1-0.1,0.2-0.2,0.3-0.4l0,0c0.3-0.3,0.6-0.6,0.9-0.9c0.1-0.1,0.1-0.1,0.2-0.2c0,0,0-0.1,0.1-0.1
					c0.3-0.3,0.6,0.4,0.9,0.1c0.1-0.1,0.1-0.1,0.2-0.2c0.1-0.1,0.3-0.3,0.4-0.4c0.1-0.1,0.2-0.2,0.2-0.4c0-0.1,0,0.8,0,0.7
					c0-0.2-0.1-0.2-0.2-0.3c-0.1-0.1-0.2-0.2-0.4-0.3c-0.1-0.1-0.2-0.2-0.3-0.2c-0.1-0.1-0.2-0.2-0.3-0.3c-0.1-0.1-0.2-0.2-0.2-0.3
					c-0.1-0.1-0.2-0.2-0.3-0.3c-0.1-0.1-0.2-0.2-0.2-0.2c-0.1-0.1-0.2-0.2-0.3-0.3c-0.1-0.1-0.2-0.2-0.3-0.2
					c-0.1-0.1-0.2-0.2-0.3-0.3c-0.1-0.1-0.1-0.2-0.2-0.3c-0.3-0.2-0.3-0.6-0.3-0.9c0-0.2,0.2-0.4,0.4-0.5c0.1,0,0.2-0.2,0.4-0.2
					c0.1,0,0.1,0,0.2,0c0.2,0.1,0.3,0.2,0.5,0.2s0.3,0.1,0.4,0.3c0.1,0.1,0.2,0.2,0.3,0.3c0.1,0.1,0.2,0.2,0.3,0.3
					c0.1,0.1,0.2,0.2,0.2,0.2c0.1,0.1,0.2,0.2,0.3,0.3c0.1,0.1,0.2,0.2,0.2,0.2c0.1,0.1,0.2,0.2,0.3,0.3c0.1,0.1,0.2,0.2,0.2,0.2
					c0.1,0.1,0.2,0.2,0.3,0.3c0.1,0.1,0.2,0.2,0.2,0.2c0.1,0.1,0.2,0.2,0.3,0.3c0.1,0.1,0.2,0.2,0.3,0.3c0.1,0.1,0.2,0.2,0.3,0.3
					c0.1,0.1,0.1,0.2,0.2,0.2C-964.7,246-964.6,246.3-964.6,246.6z"/>
				<path id="XMLID_71_" class="st0" d="M-956.6,246.4c-1,0-2.1,0-3.1,0c-0.4,0-0.7-0.2-0.9-0.6c-0.2-0.4-0.1,0.4,0.1,0.1
					s0.5,0.6,0.9,0.6c2,0,3.9,0,5.9,0c0.2,0,0.4,0,0.7,0c0.2,0,0.4-0.8,0.4-0.6c0.1,0.1,0.1,0.3,0.2,0.4v0.1
					c-0.1,0.3-0.1-0.3-0.5-0.1c-0.1,0-0.1,0-0.2,0c-0.5,0-1,0-1.5,0C-955.3,246.4-956,246.4-956.6,246.4L-956.6,246.4z"/>
				<path id="XMLID_70_" d="M-967.2,232.5c-0.3-0.2-0.7-0.1-0.9-0.5c-0.1-0.1-0.2-0.2-0.2-0.3c-0.1-0.1-0.1-0.3-0.1-0.4
					c0-0.2,0-0.4,0-0.6c0-0.1,0.1-0.3,0.1-0.4c0.1-0.1,0.2-0.3,0.3-0.4s0.1-0.1,0.2-0.1c0.3-0.1,0.6-0.2,0.9-0.1
					c0.2,0,0.4,0.1,0.6,0.2c0.1,0,0.2,0.2,0.3,0.3c0.1,0.1,0.1,0.2,0.2,0.3c0.3,0.4,0.3,0.8,0.1,1.2l-0.1,0.1
					c-0.1,0.1-0.2,0.1-0.2,0.2c-0.1,0.3-0.3,0.4-0.6,0.5C-966.8,232.4-967,232.5-967.2,232.5z"/>
				<path id="XMLID_69_" d="M-969.7,231.1c-0.1,0.2,0,0.6-0.2,0.8c-0.2,0.2-0.4,0.5-0.7,0.5h-0.1c-0.3,0.2-0.5,0.1-0.8,0
					c-0.1,0-0.2-0.1-0.3-0.1c-0.2-0.1-0.3-0.2-0.4-0.4c-0.1-0.2-0.2-0.4-0.2-0.5c-0.1-0.2-0.1-0.4,0-0.6s0.2-0.4,0.3-0.6
					c0.1-0.1,0.2-0.2,0.3-0.3c0.2-0.1,0.5-0.2,0.7-0.1c0.4,0,0.7,0.1,1,0.4C-969.7,230.4-969.7,230.7-969.7,231.1z"/>
				<path id="XMLID_68_" d="M-961.7,231c-0.1,0.3,0,0.7-0.2,0.9c-0.2,0.2-0.4,0.4-0.7,0.5h-0.1c-0.3,0.2-0.5,0-0.8,0
					c-0.1,0-0.2-0.1-0.2-0.1c-0.3-0.1-0.4-0.2-0.5-0.5c0-0.2-0.1-0.3-0.2-0.5c-0.1-0.2-0.1-0.4,0-0.6c0.1-0.2,0.2-0.4,0.3-0.7
					c0.1-0.2,0.2-0.2,0.4-0.3c0.2-0.1,0.5-0.1,0.7-0.1c0.1,0,0.3,0.1,0.4,0.1c0.4,0,0.6,0.3,0.8,0.6
					C-961.8,230.5-961.8,230.8-961.7,231z"/>
			</g>
		</g>
	</g>
</g>
<g>
	<g>
		<path class="st3" d="M-447.8-4.5c-2.6,0-4.7-2.1-4.7-4.7v-31.6c0-2.6,2.1-4.7,4.7-4.7h37.6c2.6,0,4.7,2.1,4.7,4.7v31.6
			c0,2.6-2.1,4.7-4.7,4.7H-447.8z"/>
		<path d="M-410.2-44c1.8,0,3.2,1.4,3.2,3.2v31.6c0,1.8-1.4,3.2-3.2,3.2h-37.6c-1.8,0-3.2-1.4-3.2-3.2v-31.6c0-1.8,1.4-3.2,3.2-3.2
			H-410.2 M-410.2-47h-37.6c-3.4,0-6.2,2.8-6.2,6.2v31.6c0,3.4,2.8,6.2,6.2,6.2h37.6c3.4,0,6.2-2.8,6.2-6.2v-31.6
			C-404-44.2-406.8-47-410.2-47L-410.2-47z"/>
	</g>
	<g>
		<rect x="-452.1" y="-35.5" width="45.5" height="3"/>
	</g>
	<polyline class="st4" points="-440.9,-25.2 -435,-19.3 -440.9,-13.4 	"/>
	<g>
		<rect x="-426.9" y="-20.8" width="10.9" height="3"/>
	</g>
	<g>
		<rect x="-428.7" y="-20.8" width="14.5" height="3"/>
	</g>
</g>
<circle cx="-445.2" cy="-39.6" r="1.5"/>
<circle cx="-440.8" cy="-39.6" r="1.5"/>
<circle cx="-436.3" cy="-39.6" r="1.5"/>
</svg>
